# xmcd
#
# Track frame offsets: 
#        150
#        21383
#        39606
#        60804
#        80818
#        97593
#        116828
#        134843
#        149592
#        171338
#        193905
#        206841
#        218818
#        234396
#
# Disc length: 3366 seconds
#
# Revision: 2
# Processed by: cddbd v1.5.2PL0 Copyright (c) Steve Scherf et al.
# Submitted via: ExactAudioCopyFreeDBPlugin 1.0
#
DISCID=d50d240e
DTITLE=Eva Cassidy - Songbird 20
DYEAR=1996
DGENRE=Blues
TTITLE0=Fields of Gold  - live at Blues Alley - remastered
TTITLE1=Wade In the Water - remastered
TTITLE2=Autumn Leaves  - live at Blues Alley - remastered
TTITLE3=Wayfaring Stranger - remastered
TTITLE4=Songbird - remastered
TTITLE5=Time Is a Healer - remastered
TTITLE6=I Know You by Heart - remastered
TTITLE7=People Get Ready  - live at Blues Alley - remastered
TTITLE8=Oh, Had I a Golden Thread - remastered
TTITLE9=Over the Rainbow - remastered
TTITLE10=Songbird [solo acoustic version]  - live at Glen Dale
TTITLE11=Wade in the Water [solo acoustic version]  - live at Pearl's 
TTITLE11=Annapolis
TTITLE12=People Get Ready [solo acoustic version]  - live at Glen Dale
TTITLE13=Autumn Leaves [solo acoustic version]  - live at Glen Dale
EXTD=
EXTT0=
EXTT1=
EXTT2=
EXTT3=
EXTT4=
EXTT5=
EXTT6=
EXTT7=
EXTT8=
EXTT9=
EXTT10=
EXTT11=
EXTT12=
EXTT13=
PLAYORDER=
